<svg xmlns="http://www.w3.org/2000/svg" width="256" height="256" viewBox="0 0 256 256">
  <defs>
    <linearGradient id="sky" x1="0" y1="0" x2="1" y2="1">
      <stop offset="0%" stop-color="#bfe8ff"/>
      <stop offset="100%" stop-color="#7cc4ff"/>
    </linearGradient>
    <linearGradient id="sea" x1="0" y1="0" x2="1" y2="0">
      <stop offset="0%" stop-color="#4fd1c5"/>
      <stop offset="100%" stop-color="#2ec4b6"/>
    </linearGradient>
    <linearGradient id="sand" x1="0" y1="0" x2="1" y2="0">
      <stop offset="0%" stop-color="#fbd38d"/>
      <stop offset="100%" stop-color="#f6ad55"/>
    </linearGradient>
  </defs>
  <rect width="256" height="256" rx="64" fill="url(#sky)"/>
  <path d="M20 170c40-18 80-18 120 0s80 18 116 0v66H20z" fill="url(#sea)"/>
  <ellipse cx="128" cy="170" rx="54" ry="18" fill="url(#sand)"/>
  <circle cx="86" cy="84" r="18" fill="#fff3bf"/>
  <path d="M150 112c6-18 20-28 40-30-16 8-20 22-18 38 8-10 18-16 32-16-12 8-18 18-18 32-12-8-22-10-36-8z" fill="#2f855a"/>
  <rect x="144" y="112" width="10" height="34" rx="4" fill="#8d6e63"/>
</svg>
